<?xml version="1.0" encoding="UTF-8"?>
<svg width="49px" height="24px" viewBox="0 0 49 24" version="1.1" xmlns="http://www.w3.org/2000/svg" xmlns:xlink="http://www.w3.org/1999/xlink">
    <title>Slice 1</title>
    <g id="页面-1" stroke="none" stroke-width="1" fill="none" fill-rule="evenodd">
        <g id="logo(2)" transform="translate(0.665304, 0.353808)">
            <path d="M10.6216962,8.41689206 C10.5670962,8.44729206 9.64899618,8.65609206 9.48349618,8.69719206 C7.55149618,9.17759206 5.03349618,10.2477921 3.46809618,11.4250921 C2.15009618,12.4163921 0.862996177,13.6956921 0.300896177,15.5895921 C0.0616961774,16.3953921 -0.0547038226,17.3278921 0.0248961774,18.2516921 C0.0695961774,18.7703921 0.430996177,20.2800921 0.725696177,20.4478921 C0.911696177,20.8379921 1.23609618,21.2051921 1.28499618,21.2621921 C2.49609618,22.6787921 4.52479618,23.0059921 6.41289618,23.1478921 C7.68439618,23.2433921 9.14079618,23.1668921 10.4317962,23.1749921 L22.6256962,23.1743921 C23.9733962,23.1747921 25.3184962,23.1769921 26.6641962,23.1762921 C28.0042962,23.1755921 31.3625962,23.2174921 32.6936962,23.1708921 L33.5377962,22.2500921 C31.5630962,22.1874921 27.0902962,22.2536921 25.1153962,22.2599921 C21.1259962,22.2726921 17.0882962,22.2356921 13.1175962,22.2614921 C11.4134962,22.2725921 8.86999618,22.3647921 7.36039618,21.9703921 C5.70119618,21.5367921 4.65359618,20.7364921 4.22319618,19.1096921 C3.72859618,17.2403921 4.32439618,15.5386921 5.18689618,14.3596921 C5.93799618,13.3329921 7.15519618,12.3406921 8.52069618,11.6952921 C8.85609618,11.5367921 9.21249618,11.3807921 9.56199618,11.2481921 C10.2354962,10.9926921 10.0620962,11.1393921 10.3289962,10.4852921 L11.2123962,8.33749206 L10.6216962,8.41689206 L10.6216962,8.41689206 Z" id="路径" fill="#B3261F"></path>
            <path d="M11.7884962,7.47409206 C11.8605962,7.43559206 12.0395962,7.16129206 12.1192962,7.05999206 C12.3507962,6.76609206 12.5594962,6.49199206 12.8078962,6.21809206 C14.1944962,4.68969206 16.0352962,3.16459206 18.2670962,2.58179206 C19.0845962,2.36839206 20.1096962,2.23519206 21.0196962,2.35229206 C21.8176962,2.45489206 22.8047962,2.66119206 23.5009962,2.92869206 C24.2751962,3.22599206 24.8888962,3.51669206 25.4934962,3.95499206 C25.9295962,4.27109206 26.7990962,5.06479206 26.9534962,5.54839206 C26.8374962,5.61459206 26.1517962,5.78169206 25.9316962,5.85429206 C24.8897962,6.19779206 24.0870962,6.58539206 23.1490962,7.14929206 C22.5470962,7.51119206 20.4911962,8.98999206 20.1279962,9.54769206 C20.1783962,9.63019206 20.1690962,9.61579206 20.2317962,9.72749206 L22.6089962,8.68849206 C23.0270962,8.52429206 24.8013962,7.81669206 25.2009962,7.83879206 L26.0562962,7.62619206 C26.2871962,7.52599206 27.3007962,7.46769206 27.6247962,7.45619206 C30.2366962,7.36369206 32.4965962,8.06649206 34.4905962,9.62169206 C34.7866962,9.85259206 34.6629962,9.86649206 35.1525962,9.86319206 C35.4530962,9.86109206 35.7540962,9.86289206 36.0546962,9.86269206 C36.6183962,9.86249206 37.3000962,9.89659206 37.8487962,9.85189206 C36.7274962,8.36819206 36.0013962,7.58219206 34.2419962,6.61549206 C32.9676962,5.91529206 31.0344962,5.39229206 29.5058962,5.33289206 C29.2469962,5.32279206 28.8769962,5.35389206 28.6441962,5.31369206 C28.5227962,5.09959206 28.4248962,4.84319206 28.3133962,4.62549206 C27.9591962,3.93399206 27.5056962,3.34969206 27.0029962,2.79869206 C24.9666962,0.32219206 21.6487962,0.12189206 21.3278962,0.0837920598 C15.5170962,-0.60670794 10.6659962,3.07139206 7.47559618,7.39589206 C7.29519618,7.64049206 6.93889618,8.09039206 6.80799618,8.36339206 C7.61229618,8.23079206 11.6265962,7.56029206 11.7884962,7.47409206 L11.7884962,7.47409206 Z" id="路径" fill="#B3261F"></path>
            <text id="千维顺" font-family="PingFangSC-Medium, PingFang SC" font-size="10" font-weight="400" fill="#000000">
                <tspan x="15.3346962" y="19.6461921">千维顺</tspan>
            </text>
        </g>
    </g>
</svg>