<?xml version="1.0" encoding="UTF-8"?>
<!DOCTYPE svg PUBLIC "-//W3C//DTD SVG 1.1//EN" "http://www.w3.org/Graphics/SVG/1.1/DTD/svg11.dtd">
<!-- Creator: CorelDRAW 2020 (64-Bit) -->
<svg xmlns="http://www.w3.org/2000/svg" xml:space="preserve" width="52mm" height="32mm" version="1.1" style="shape-rendering:geometricPrecision; text-rendering:geometricPrecision; image-rendering:optimizeQuality; fill-rule:evenodd; clip-rule:evenodd"
viewBox="0 0 5200 3200"
 xmlns:xlink="http://www.w3.org/1999/xlink"
 xmlns:xodm="http://www.corel.com/coreldraw/odm/2003">
 <defs>
  <style type="text/css">
   <![CDATA[
    .fil1 {fill:#1C1C1C}
    .fil0 {fill:#B3261F}
   ]]>
  </style>
 </defs>
 <g id="图层_x0020_1">
  <metadata id="CorelCorpID_0Corel-Layer"/>
  <path class="fil0" d="M1228.7 1277.07c-5.46,3.04 -97.27,23.92 -113.82,28.03 -193.2,48.04 -445,155.06 -601.54,272.79 -131.8,99.13 -260.51,227.06 -316.72,416.45 -23.92,80.58 -35.56,173.83 -27.6,266.21 4.47,51.87 40.61,202.84 70.08,219.62 18.6,39.01 51.04,75.73 55.93,81.43 121.11,141.66 323.98,174.38 512.79,188.57 127.15,9.55 272.79,1.9 401.89,2.71l1219.39 -0.06c134.77,0.04 269.28,0.26 403.85,0.19 134.01,-0.07 469.84,4.12 602.95,-0.54l84.41 -92.08c-197.47,-6.26 -644.75,0.36 -842.24,0.99 -398.94,1.27 -802.71,-2.43 -1199.78,0.15 -170.41,1.11 -424.76,10.33 -575.72,-29.11 -165.92,-43.36 -270.68,-123.39 -313.72,-286.07 -49.46,-186.93 10.12,-357.1 96.37,-475 75.11,-102.67 196.83,-201.9 333.38,-266.44 33.54,-15.85 69.18,-31.45 104.13,-44.71 67.35,-25.55 50.01,-10.88 76.7,-76.29l88.34 -214.78 -59.07 7.94z"/>
  <path class="fil0" d="M1345.38 1182.79c7.21,-3.85 25.11,-31.28 33.08,-41.41 23.15,-29.39 44.02,-56.8 68.86,-84.19 138.66,-152.84 322.74,-305.35 545.92,-363.63 81.75,-21.34 184.26,-34.66 275.26,-22.95 79.8,10.26 178.51,30.89 248.13,57.64 77.42,29.73 138.79,58.8 199.25,102.63 43.61,31.61 130.56,110.98 146,159.34 -11.6,6.62 -80.17,23.33 -102.18,30.59 -104.19,34.35 -184.46,73.11 -278.26,129.5 -60.2,36.19 -265.79,184.07 -302.11,239.84 5.04,8.25 4.11,6.81 10.38,17.98l237.72 -103.9c41.81,-16.42 219.24,-87.18 259.2,-84.97l85.53 -21.26c23.09,-10.02 124.45,-15.85 156.85,-17 261.19,-9.25 487.18,61.03 686.58,216.55 29.61,23.09 17.24,24.48 66.2,24.15 30.05,-0.21 60.15,-0.03 90.21,-0.05 56.37,-0.02 124.54,3.39 179.41,-1.08 -112.13,-148.37 -184.74,-226.97 -360.68,-323.64 -127.43,-70.02 -320.75,-122.32 -473.61,-128.26 -25.89,-1.01 -62.89,2.1 -86.17,-1.92 -12.14,-21.41 -21.93,-47.05 -33.08,-68.82 -35.42,-69.15 -80.77,-127.58 -131.04,-182.68 -203.63,-247.65 -535.42,-267.68 -567.51,-271.49 -581.08,-69.05 -1066.19,298.76 -1385.23,731.21 -18.04,24.46 -53.67,69.45 -66.76,96.75 80.43,-13.26 481.86,-80.31 498.05,-88.93z"/>
  <path class="fil1" d="M3285.46 1849.94c6.67,138.18 1.11,542.39 1.12,691.97 0,46.81 23.43,35.97 113.05,35.94 41.44,-0.01 42.19,-0.72 47.9,-39.07 57.33,-0.13 446.13,7.18 463.52,-6.73 9.4,-7.6 8.11,-1.65 10.03,-18.87 1.22,-10.88 -1.91,-21.66 -4,-29.24 -37.14,-17.83 -123.72,-1.94 -174.28,-8.52l0.07 -193.61c85.22,-9.39 188.84,29.86 152.39,-58.58l-152.58 -3.69 0.23 -193.89 107.76 -1.66c27.01,-0.09 47.58,6.45 51.04,-24.13 5.85,-51.83 -50.15,-36.39 -159.31,-37.15l0.42 -194.49 171.19 -2.12c7.72,-18.92 10.89,-31.59 1.98,-53.9 -10.49,-10.9 -422.26,-6.45 -463.41,-6.45 16.88,-52.66 93.56,-158.44 8.77,-158.45 -180.68,-0.01 -77.15,-17.76 -178.18,170.68 -32.02,59.72 -75.21,106.21 -51.69,133 15.2,17.34 37.62,3.32 53.98,-1.04zm1206.15 -202.11l126.31 0.12 -12.79 116.46c-161.35,7.08 -130.92,-61.19 -130.92,269.49 0,46.05 -5.2,248.49 3.01,275.37 21,20.86 76.16,11.96 111.16,12.11 -16.26,61.96 -70.14,143.59 -109.15,189.22 -69.97,81.85 65.43,95.72 190.89,-51.36 18.3,-21.46 26.77,-39.81 44.64,-60.79 3.41,3.09 2.91,1.99 7.16,7.94l18.8 33.64c9.06,15.98 15,28.4 24.98,46.21 44.78,79.93 14.29,72.25 153.21,72.25 66.85,0 24,-55.2 -6.61,-109.82 -15.13,-26.99 -58.68,-99.97 -65.3,-126.02 136.31,-2.96 105.98,38.96 105.98,-298.25l0.35 -218.71c-0.19,-55.29 -20.81,-41.01 -167.36,-40.57l-32.07 0.19 13.19 -116.77 170.81 -0.68c28.73,-0.29 44.68,-16.88 30.29,-47.95 -9.18,-19.82 -55.25,-11.58 -77.77,-11.57l-356.08 0c-9.15,-0.01 -106,-13.53 -75.75,46.72 6.58,13.08 14.27,12.75 33.02,12.77zm-1599.71 276.88c0,53.27 11.32,40.76 137.41,40.58l26.32 -0.06c-8.92,32.7 -31.3,70.58 -45.5,101.71l-91.04 193.85c-16.1,35.48 -40.17,68.55 -21.69,114.14 0.7,0.29 319.36,18.13 336.16,-3.94 6.71,-16.52 6.21,-29.52 -1.52,-45.72 -22.33,-22.99 -117.67,13.01 -141.04,-16.86 -14.84,-18.96 58.34,-155.28 74.86,-189.95 24.14,-50.65 89.74,-166.38 67.6,-202.03 -7.02,-10.18 -3.66,-11.25 -24.08,-13.18 -31.54,-2.98 -91.4,5.82 -120.32,-5.06 -10.56,-29.69 44.09,-124.77 65.3,-171.27 12.31,-27.02 25.2,-53.69 37.48,-81.16 41.22,-92.21 55.05,-98.57 -48.59,-98.29 -103.5,0.28 -71.66,-25.46 -144.42,128.34 -21.8,46.08 -106.93,209.25 -106.93,248.9zm1411.8 -341.84c0,138.12 -4.89,915.32 3.09,986.56 22.2,11.61 55.02,8.33 85.4,8.46 56.17,0.24 45.91,-12.5 45.91,-107.2l-0.03 -887.82c-0.03,-43.63 -24.51,-35.56 -65.14,-35.59 -41.3,-0.04 -69.23,-9.63 -69.23,35.59zm-328.55 318.09c-0.04,215.96 4.69,364.79 -25.25,587.43 -6.04,44.93 -16.12,63.11 19.46,83.08 46.29,-7.5 85.63,-87.91 102.72,-145.07 18.97,-63.47 29.82,-146.09 33.05,-216.74 8.64,-189.01 2.77,-406.21 2.58,-603.05l-3.29 -53.93c-20.36,-5.63 -93.39,-11.14 -115.03,-2.58 -24.54,9.72 -14.19,77.98 -14.2,108.73 -0.01,81.01 -0.04,161.54 -0.04,242.13zm163.56 -185.16l4.15 818.02c34.95,5.44 94.54,11.82 125.36,-1.52l5.23 -28.22c5.05,-55.33 -0.98,-729.92 -0.99,-883.23 -0.01,-41.13 -25.44,-32.49 -89.45,-32.49 -38.19,0 -45.16,0.86 -44.37,41.71 0.56,29.31 0.04,56.62 0.07,85.73zm467.85 554.38c59.99,-129.36 5.62,-365.1 46.08,-383.32 7.23,-3.26 6.49,-2.37 14.85,-3 18.86,-1.44 108.45,-2.82 117.09,9.06 15.94,60.59 -1.61,259.64 -9.24,327.89 25.92,8.36 30.47,37.33 47.06,59.75 5.76,-79.75 1.91,-313.91 1.29,-417.99 -0.28,-46.26 -13.76,-35.82 -104.19,-35.82 -144.35,0 -115.22,-26.19 -115.22,164.42 0,70.8 -8.07,216.99 2.28,279.01zm-1160.65 -306.91l136.33 0.33 0.12 -196.85 -136.72 0.15 0.27 196.37zm-0.07 513.75l136.12 -0.21 0.32 -196.5 -135.92 0.17 -0.52 196.54zm210.17 -789.01c117.81,0.01 107.72,2.54 82.14,-87.53 -19.48,-68.6 -17.6,-52.92 -96.39,-53.19 -68.76,-0.24 -80.24,0.4 -59.65,67.09 18.95,61.36 2.3,73.63 73.9,73.63zm-760.81 813.86c-15.45,73.02 12.04,56.97 167.34,56.77 39.59,-0.05 79.26,-0.29 118.84,0 50.09,0.37 66.52,-3.32 52.3,-55.88 -26.23,-9.4 -316.41,-12.3 -338.48,-0.89zm671.6 -478.13c11.56,21.13 20.58,37.5 6.05,64.15 -9.98,18.31 -28.79,25.99 -49.56,24.88 -53,-2.85 -50.04,-48.72 -36.46,-89.75l-40.8 1.65 -0.07 195.31 136.67 0.13 -0.43 -190.96c-4.63,-2.97 2.39,-3.28 -15.4,-5.41zm0 0l-79.97 -0.72c-13.58,41.03 -16.54,86.9 36.46,89.75 20.77,1.11 39.58,-6.57 49.56,-24.88 14.53,-26.65 5.51,-43.02 -6.05,-64.15z"/>
  <path class="fil1" d="M1864.95 1639.84c25.01,19.54 150.17,8.24 190.06,8.24 66.8,0 133.61,0 200.4,0l-0.73 393.78c-62.16,-0.22 -395.7,-4.75 -429.09,4.9 -4.16,14.96 -5.54,29.77 -1.44,47.75 29.03,18.2 371.64,9.02 431.52,9.02l0.33 438.38c-0.01,40.51 16.07,35.85 60.14,35.81 31.18,-0.02 70.82,3.63 94.81,-6.46 11.68,-67.61 3.88,-351.03 4.29,-467.45 54.76,-0.79 401.28,6.11 420.76,-3.77 9.17,-5.61 13.91,-4.54 15.09,-23.84 0.91,-14.96 -4.41,-22.41 -10.12,-30.52 -41.35,-10.9 -361.62,-5.79 -424.63,-3.37 -5.34,-78.13 -1.19,-287.02 -1.17,-394.17 43.11,-0.45 377.81,7.1 390.44,-8.3 7.68,-16.2 4.47,-33.49 -0.98,-47.37 -75.77,-11.69 -720.7,-4.09 -854.07,-4.14 -52.71,-0.02 -114.74,-9.02 -85.61,51.51z"/>
 </g>
</svg>
